<svg width="744" height="131" viewBox="0 0 744 131" fill="none" xmlns="http://www.w3.org/2000/svg">
<path d="M34.776 24.704C37.6347 25.472 39.8107 26.7947 41.304 28.672C42.7973 30.5067 43.544 32.8107 43.544 35.584C43.544 39.5093 42.0933 42.56 39.192 44.736C36.2907 46.912 32.088 48 26.584 48H5.336V3.2H25.368C30.4027 3.2 34.328 4.20266 37.144 6.208C39.96 8.21333 41.368 11.0507 41.368 14.72C41.368 17.0667 40.792 19.0933 39.64 20.8C38.5307 22.5067 36.9093 23.808 34.776 24.704ZM13.528 22.336H24.664C27.352 22.336 29.4 21.8027 30.808 20.736C32.216 19.6693 32.92 18.0907 32.92 16C32.92 13.9093 32.216 12.3307 30.808 11.264C29.4 10.1547 27.352 9.6 24.664 9.6H13.528V22.336ZM26.328 41.6C32.216 41.6 35.16 39.3813 35.16 34.944C35.16 30.592 32.216 28.416 26.328 28.416H13.528V41.6H26.328ZM67.678 48.448C64.1367 48.448 60.958 47.7013 58.142 46.208C55.326 44.7147 53.1287 42.6453 51.55 40C49.9713 37.312 49.182 34.2827 49.182 30.912C49.182 27.5413 49.9713 24.5333 51.55 21.888C53.1287 19.2427 55.3047 17.1733 58.078 15.68C60.894 14.1867 64.094 13.44 67.678 13.44C71.0487 13.44 73.9927 14.1227 76.51 15.488C79.07 16.8533 80.99 18.816 82.27 21.376L76.126 24.96C75.1447 23.3813 73.9073 22.208 72.414 21.44C70.9633 20.6293 69.3633 20.224 67.614 20.224C64.6273 20.224 62.1527 21.2053 60.19 23.168C58.2273 25.088 57.246 27.6693 57.246 30.912C57.246 34.1547 58.206 36.7573 60.126 38.72C62.0887 40.64 64.5847 41.6 67.614 41.6C69.3633 41.6 70.9633 41.216 72.414 40.448C73.9073 39.6373 75.1447 38.4427 76.126 36.864L82.27 40.448C80.9473 43.008 79.006 44.992 76.446 46.4C73.9287 47.7653 71.006 48.448 67.678 48.448ZM120.814 31.104C120.814 31.6587 120.771 32.448 120.686 33.472H93.8695C94.3388 35.9893 95.5548 37.9947 97.5175 39.488C99.5228 40.9387 101.998 41.664 104.942 41.664C108.696 41.664 111.79 40.4267 114.222 37.952L118.51 42.88C116.974 44.7147 115.032 46.1013 112.686 47.04C110.339 47.9787 107.694 48.448 104.75 48.448C100.995 48.448 97.6882 47.7013 94.8295 46.208C91.9708 44.7147 89.7522 42.6453 88.1735 40C86.6375 37.312 85.8695 34.2827 85.8695 30.912C85.8695 27.584 86.6162 24.5973 88.1095 21.952C89.6455 19.264 91.7575 17.1733 94.4455 15.68C97.1335 14.1867 100.163 13.44 103.534 13.44C106.862 13.44 109.827 14.1867 112.43 15.68C115.075 17.1307 117.123 19.2 118.574 21.888C120.067 24.5333 120.814 27.6053 120.814 31.104ZM103.534 19.84C100.974 19.84 98.7975 20.608 97.0055 22.144C95.2562 23.6373 94.1895 25.6427 93.8055 28.16H113.198C112.856 25.6853 111.811 23.68 110.062 22.144C108.312 20.608 106.136 19.84 103.534 19.84ZM97.1335 8.448C96.0242 8.448 95.1068 8.08533 94.3815 7.36C93.6562 6.63467 93.2935 5.71733 93.2935 4.608C93.2935 3.456 93.6562 2.51733 94.3815 1.792C95.1068 1.06666 96.0242 0.703999 97.1335 0.703999C98.2428 0.703999 99.1602 1.06666 99.8855 1.792C100.611 2.51733 100.974 3.456 100.974 4.608C100.974 5.71733 100.611 6.63467 99.8855 7.36C99.1602 8.08533 98.2428 8.448 97.1335 8.448ZM109.55 8.448C108.44 8.448 107.523 8.08533 106.798 7.36C106.072 6.63467 105.71 5.71733 105.71 4.608C105.71 3.456 106.072 2.51733 106.798 1.792C107.523 1.06666 108.44 0.703999 109.55 0.703999C110.659 0.703999 111.576 1.06666 112.302 1.792C113.027 2.51733 113.39 3.456 113.39 4.608C113.39 5.71733 113.027 6.63467 112.302 7.36C111.576 8.08533 110.659 8.448 109.55 8.448ZM132.06 37.824C133.553 37.824 134.79 38.3147 135.772 39.296C136.753 40.2773 137.244 41.5573 137.244 43.136C137.244 43.8187 137.137 44.544 136.924 45.312C136.753 46.0373 136.369 47.1467 135.772 48.64L132.508 57.664H127.324L129.884 47.872C128.945 47.488 128.198 46.8907 127.644 46.08C127.132 45.2267 126.876 44.2453 126.876 43.136C126.876 41.5573 127.366 40.2773 128.348 39.296C129.329 38.3147 130.566 37.824 132.06 37.824ZM191.868 13.824V48H183.868V34.752C180.583 36.3307 177.148 37.12 173.564 37.12C169.169 37.12 165.799 36.1173 163.452 34.112C161.105 32.064 159.932 28.9493 159.932 24.768V13.824H167.932V24.256C167.932 26.432 168.572 28.0533 169.852 29.12C171.132 30.1867 172.945 30.72 175.292 30.72C178.279 30.72 181.137 30.08 183.868 28.8V13.824H191.868ZM234.626 31.104C234.626 31.6587 234.583 32.448 234.498 33.472H207.682C208.151 35.9893 209.367 37.9947 211.33 39.488C213.335 40.9387 215.81 41.664 218.754 41.664C222.509 41.664 225.602 40.4267 228.034 37.952L232.322 42.88C230.786 44.7147 228.845 46.1013 226.498 47.04C224.151 47.9787 221.506 48.448 218.562 48.448C214.807 48.448 211.501 47.7013 208.642 46.208C205.783 44.7147 203.565 42.6453 201.986 40C200.45 37.312 199.682 34.2827 199.682 30.912C199.682 27.584 200.429 24.5973 201.922 21.952C203.458 19.264 205.57 17.1733 208.258 15.68C210.946 14.1867 213.975 13.44 217.346 13.44C220.674 13.44 223.639 14.1867 226.242 15.68C228.887 17.1307 230.935 19.2 232.386 21.888C233.879 24.5333 234.626 27.6053 234.626 31.104ZM217.346 19.84C214.786 19.84 212.61 20.608 210.818 22.144C209.069 23.6373 208.002 25.6427 207.618 28.16H227.01C226.669 25.6853 225.623 23.68 223.874 22.144C222.125 20.608 219.949 19.84 217.346 19.84ZM269.616 20.608H251.376V48H243.376V13.824H269.616V20.608ZM289.171 48.448C285.715 48.448 282.6 47.7013 279.827 46.208C277.053 44.7147 274.877 42.6453 273.299 40C271.763 37.312 270.995 34.2827 270.995 30.912C270.995 27.5413 271.763 24.5333 273.299 21.888C274.877 19.2427 277.053 17.1733 279.827 15.68C282.6 14.1867 285.715 13.44 289.171 13.44C292.669 13.44 295.805 14.1867 298.579 15.68C301.352 17.1733 303.507 19.2427 305.043 21.888C306.621 24.5333 307.411 27.5413 307.411 30.912C307.411 34.2827 306.621 37.312 305.043 40C303.507 42.6453 301.352 44.7147 298.579 46.208C295.805 47.7013 292.669 48.448 289.171 48.448ZM289.171 41.6C292.115 41.6 294.547 40.6187 296.467 38.656C298.387 36.6933 299.347 34.112 299.347 30.912C299.347 27.712 298.387 25.1307 296.467 23.168C294.547 21.2053 292.115 20.224 289.171 20.224C286.227 20.224 283.795 21.2053 281.875 23.168C279.997 25.1307 279.059 27.712 279.059 30.912C279.059 34.112 279.997 36.6933 281.875 38.656C283.795 40.6187 286.227 41.6 289.171 41.6ZM24.792 100.208C26.9253 100.805 28.568 101.787 29.72 103.152C30.9147 104.475 31.512 106.075 31.512 107.952C31.512 110.043 30.808 111.899 29.4 113.52C27.992 115.099 26.0507 116.336 23.576 117.232C21.1013 118.128 18.2853 118.576 15.128 118.576C12.4827 118.576 9.90133 118.277 7.384 117.68C4.86667 117.04 2.584 116.144 0.536 114.992L2.84 109.04C4.504 109.979 6.38133 110.704 8.472 111.216C10.5627 111.728 12.6533 111.984 14.744 111.984C17.432 111.984 19.5227 111.579 21.016 110.768C22.552 109.915 23.32 108.763 23.32 107.312C23.32 105.989 22.7227 104.965 21.528 104.24C20.376 103.515 18.7333 103.152 16.6 103.152H9.944V97.776H15.96C17.9653 97.776 19.5227 97.4347 20.632 96.752C21.784 96.0693 22.36 95.1093 22.36 93.872C22.36 92.6347 21.6773 91.6533 20.312 90.928C18.9467 90.2027 17.0693 89.84 14.68 89.84C11.2667 89.84 7.66133 90.672 3.864 92.336L1.816 86.448C6.296 84.3573 10.8187 83.312 15.384 83.312C18.2853 83.312 20.888 83.7173 23.192 84.528C25.496 85.296 27.288 86.4053 28.568 87.856C29.8907 89.264 30.552 90.8853 30.552 92.72C30.552 94.384 30.04 95.8773 29.016 97.2C27.992 98.48 26.584 99.4827 24.792 100.208ZM52.5495 83.44C57.5842 83.44 61.4242 84.656 64.0695 87.088C66.7575 89.4773 68.1015 93.104 68.1015 97.968V118H60.5495V113.84C59.5682 115.333 58.1602 116.485 56.3255 117.296C54.5335 118.064 52.3575 118.448 49.7975 118.448C47.2375 118.448 44.9975 118.021 43.0775 117.168C41.1575 116.272 39.6642 115.056 38.5975 113.52C37.5735 111.941 37.0615 110.171 37.0615 108.208C37.0615 105.136 38.1922 102.683 40.4535 100.848C42.7575 98.9707 46.3628 98.032 51.2695 98.032H60.1015V97.52C60.1015 95.1307 59.3762 93.296 57.9255 92.016C56.5175 90.736 54.4055 90.096 51.5895 90.096C49.6695 90.096 47.7708 90.3947 45.8935 90.992C44.0588 91.5893 42.5015 92.4213 41.2215 93.488L38.0855 87.664C39.8775 86.2987 42.0322 85.2533 44.5495 84.528C47.0668 83.8027 49.7335 83.44 52.5495 83.44ZM51.4615 112.624C53.4668 112.624 55.2375 112.176 56.7735 111.28C58.3522 110.341 59.4615 109.019 60.1015 107.312V103.344H51.8455C47.2375 103.344 44.9335 104.859 44.9335 107.888C44.9335 109.339 45.5095 110.491 46.6615 111.344C47.8135 112.197 49.4135 112.624 51.4615 112.624ZM93.553 118.448C90.0117 118.448 86.833 117.701 84.017 116.208C81.201 114.715 79.0037 112.645 77.425 110C75.8463 107.312 75.057 104.283 75.057 100.912C75.057 97.5413 75.8463 94.5333 77.425 91.888C79.0037 89.2427 81.1797 87.1733 83.953 85.68C86.769 84.1867 89.969 83.44 93.553 83.44C96.9237 83.44 99.8677 84.1227 102.385 85.488C104.945 86.8533 106.865 88.816 108.145 91.376L102.001 94.96C101.02 93.3813 99.7823 92.208 98.289 91.44C96.8383 90.6293 95.2383 90.224 93.489 90.224C90.5023 90.224 88.0277 91.2053 86.065 93.168C84.1023 95.088 83.121 97.6693 83.121 100.912C83.121 104.155 84.081 106.757 86.001 108.72C87.9637 110.64 90.4597 111.6 93.489 111.6C95.2383 111.6 96.8383 111.216 98.289 110.448C99.7823 109.637 101.02 108.443 102.001 106.864L108.145 110.448C106.822 113.008 104.881 114.992 102.321 116.4C99.8037 117.765 96.881 118.448 93.553 118.448ZM145.415 83.824V118H137.415V90.608H124.615L124.295 97.392C124.081 101.915 123.655 105.712 123.015 108.784C122.417 111.813 121.372 114.224 119.879 116.016C118.428 117.765 116.423 118.64 113.863 118.64C112.668 118.64 111.196 118.405 109.447 117.936L109.831 111.216C110.428 111.344 110.94 111.408 111.367 111.408C112.988 111.408 114.204 110.768 115.015 109.488C115.825 108.165 116.337 106.608 116.551 104.816C116.807 102.981 117.02 100.379 117.191 97.008L117.767 83.824H145.415ZM188.444 83.824L172.445 120.752C170.951 124.464 169.138 127.067 167.005 128.56C164.871 130.096 162.29 130.864 159.26 130.864C157.554 130.864 155.869 130.587 154.205 130.032C152.541 129.477 151.175 128.709 150.108 127.728L153.309 121.84C154.077 122.565 154.973 123.141 155.997 123.568C157.063 123.995 158.13 124.208 159.197 124.208C160.605 124.208 161.757 123.845 162.653 123.12C163.591 122.395 164.445 121.179 165.213 119.472L165.789 118.128L150.877 83.824H159.197L169.949 109.104L180.765 83.824H188.444ZM224.512 104.304H218.752V118H210.816V104.304H205.056L196.736 118H187.264L198.464 100.336L188.096 83.824H196.608L204.928 97.648H210.816V83.824H218.752V97.648H224.576L232.96 83.824H241.472L231.104 100.336L242.368 118H232.832L224.512 104.304ZM248.314 83.824H256.314V106.352L275.194 83.824H282.49V118H274.49V95.472L255.674 118H248.314V83.824ZM318.019 100.208C322.243 101.488 324.355 104.219 324.355 108.4C324.355 111.472 323.203 113.84 320.899 115.504C318.595 117.168 315.182 118 310.659 118H293.251V83.824H309.955C314.136 83.824 317.4 84.592 319.747 86.128C322.094 87.664 323.267 89.84 323.267 92.656C323.267 94.4053 322.798 95.92 321.859 97.2C320.963 98.48 319.683 99.4827 318.019 100.208ZM300.867 98.096H309.251C313.39 98.096 315.459 96.6667 315.459 93.808C315.459 91.0347 313.39 89.648 309.251 89.648H300.867V98.096ZM310.019 112.176C314.414 112.176 316.611 110.747 316.611 107.888C316.611 106.395 316.099 105.285 315.075 104.56C314.051 103.792 312.451 103.408 310.275 103.408H300.867V112.176H310.019ZM345.612 83.44C350.647 83.44 354.487 84.656 357.132 87.088C359.82 89.4773 361.164 93.104 361.164 97.968V118H353.612V113.84C352.631 115.333 351.223 116.485 349.388 117.296C347.596 118.064 345.42 118.448 342.86 118.448C340.3 118.448 338.06 118.021 336.14 117.168C334.22 116.272 332.727 115.056 331.66 113.52C330.636 111.941 330.124 110.171 330.124 108.208C330.124 105.136 331.255 102.683 333.516 100.848C335.82 98.9707 339.425 98.032 344.332 98.032H353.164V97.52C353.164 95.1307 352.439 93.296 350.988 92.016C349.58 90.736 347.468 90.096 344.652 90.096C342.732 90.096 340.833 90.3947 338.956 90.992C337.121 91.5893 335.564 92.4213 334.284 93.488L331.148 87.664C332.94 86.2987 335.095 85.2533 337.612 84.528C340.129 83.8027 342.796 83.44 345.612 83.44ZM344.524 112.624C346.529 112.624 348.3 112.176 349.836 111.28C351.415 110.341 352.524 109.019 353.164 107.312V103.344H344.908C340.3 103.344 337.996 104.859 337.996 107.888C337.996 109.339 338.572 110.491 339.724 111.344C340.876 112.197 342.476 112.624 344.524 112.624ZM403.064 101.104C403.064 101.659 403.021 102.448 402.936 103.472H376.12C376.589 105.989 377.805 107.995 379.768 109.488C381.773 110.939 384.248 111.664 387.192 111.664C390.946 111.664 394.04 110.427 396.472 107.952L400.76 112.88C399.224 114.715 397.282 116.101 394.936 117.04C392.589 117.979 389.944 118.448 387 118.448C383.245 118.448 379.938 117.701 377.08 116.208C374.221 114.715 372.002 112.645 370.424 110C368.888 107.312 368.12 104.283 368.12 100.912C368.12 97.584 368.866 94.5973 370.36 91.952C371.896 89.264 374.008 87.1733 376.696 85.68C379.384 84.1867 382.413 83.44 385.784 83.44C389.112 83.44 392.077 84.1867 394.68 85.68C397.325 87.1307 399.373 89.2 400.824 91.888C402.317 94.5333 403.064 97.6053 403.064 101.104ZM385.784 89.84C383.224 89.84 381.048 90.608 379.256 92.144C377.506 93.6373 376.44 95.6427 376.056 98.16H395.448C395.106 95.6853 394.061 93.68 392.312 92.144C390.562 90.608 388.386 89.84 385.784 89.84ZM437.636 90.608H425.668V118H417.668V90.608H405.636V83.824H437.636V90.608ZM485.894 100.208C490.118 101.488 492.23 104.219 492.23 108.4C492.23 111.472 491.078 113.84 488.774 115.504C486.47 117.168 483.057 118 478.534 118H461.126V83.824H477.83C482.011 83.824 485.275 84.592 487.622 86.128C489.969 87.664 491.142 89.84 491.142 92.656C491.142 94.4053 490.673 95.92 489.734 97.2C488.838 98.48 487.558 99.4827 485.894 100.208ZM468.742 98.096H477.126C481.265 98.096 483.334 96.6667 483.334 93.808C483.334 91.0347 481.265 89.648 477.126 89.648H468.742V98.096ZM477.894 112.176C482.289 112.176 484.486 110.747 484.486 107.888C484.486 106.395 483.974 105.285 482.95 104.56C481.926 103.792 480.326 103.408 478.15 103.408H468.742V112.176H477.894ZM513.487 83.44C518.522 83.44 522.362 84.656 525.007 87.088C527.695 89.4773 529.039 93.104 529.039 97.968V118H521.487V113.84C520.506 115.333 519.098 116.485 517.263 117.296C515.471 118.064 513.295 118.448 510.735 118.448C508.175 118.448 505.935 118.021 504.015 117.168C502.095 116.272 500.602 115.056 499.535 113.52C498.511 111.941 497.999 110.171 497.999 108.208C497.999 105.136 499.13 102.683 501.391 100.848C503.695 98.9707 507.3 98.032 512.207 98.032H521.039V97.52C521.039 95.1307 520.314 93.296 518.863 92.016C517.455 90.736 515.343 90.096 512.527 90.096C510.607 90.096 508.708 90.3947 506.831 90.992C504.996 91.5893 503.439 92.4213 502.159 93.488L499.023 87.664C500.815 86.2987 502.97 85.2533 505.487 84.528C508.004 83.8027 510.671 83.44 513.487 83.44ZM512.399 112.624C514.404 112.624 516.175 112.176 517.711 111.28C519.29 110.341 520.399 109.019 521.039 107.312V103.344H512.783C508.175 103.344 505.871 104.859 505.871 107.888C505.871 109.339 506.447 110.491 507.599 111.344C508.751 112.197 510.351 112.624 512.399 112.624ZM589.307 83.824V118H538.939V83.824H546.939V111.216H560.187V83.824H568.187V111.216H581.307V83.824H589.307ZM654.231 111.216V125.616H646.743V118H620.375V125.616H612.951V111.216H614.551C616.727 111.131 618.199 109.744 618.967 107.056C619.778 104.325 620.311 100.485 620.567 95.536L621.015 83.824H649.175V111.216H654.231ZM627.863 96.112C627.692 100.037 627.372 103.237 626.903 105.712C626.434 108.187 625.58 110.021 624.343 111.216H641.175V90.608H628.055L627.863 96.112ZM676.608 118.448C673.152 118.448 670.037 117.701 667.264 116.208C664.491 114.715 662.315 112.645 660.736 110C659.2 107.312 658.432 104.283 658.432 100.912C658.432 97.5413 659.2 94.5333 660.736 91.888C662.315 89.2427 664.491 87.1733 667.264 85.68C670.037 84.1867 673.152 83.44 676.608 83.44C680.107 83.44 683.243 84.1867 686.016 85.68C688.789 87.1733 690.944 89.2427 692.48 91.888C694.059 94.5333 694.848 97.5413 694.848 100.912C694.848 104.283 694.059 107.312 692.48 110C690.944 112.645 688.789 114.715 686.016 116.208C683.243 117.701 680.107 118.448 676.608 118.448ZM676.608 111.6C679.552 111.6 681.984 110.619 683.904 108.656C685.824 106.693 686.784 104.112 686.784 100.912C686.784 97.712 685.824 95.1307 683.904 93.168C681.984 91.2053 679.552 90.224 676.608 90.224C673.664 90.224 671.232 91.2053 669.312 93.168C667.435 95.1307 666.496 97.712 666.496 100.912C666.496 104.112 667.435 106.693 669.312 108.656C671.232 110.619 673.664 111.6 676.608 111.6ZM736.351 118V95.344L724.831 114.416H721.375L710.047 95.28V118H702.751V83.824H711.135L723.295 105.2L736.031 83.824H743.519L743.583 118H736.351Z" fill="white"/>
</svg>
